<svg viewBox="0 0 24 24" xmlns="http://www.w3.org/2000/svg" xmlns:xlink="http://www.w3.org/1999/xlink" overflow="hidden"><path d="M15.852 8.981 11.264 8.981 11.264 0 15.852 0C18.328 0 20.342 2.014 20.342 4.49 20.342 6.966 18.328 8.981 15.852 8.981ZM12.735 7.51 15.852 7.51C17.517 7.51 18.871 6.155 18.871 4.491 18.871 2.827 17.516 1.472 15.852 1.472L12.735 1.472 12.735 7.51ZM12.735 8.981 8.148 8.981C5.672 8.981 3.658 6.967 3.658 4.491 3.658 2.015 5.672 0 8.148 0L12.736 0 12.736 8.981ZM8.148 1.471C6.483 1.471 5.129 2.826 5.129 4.49 5.129 6.154 6.483 7.51 8.148 7.51L11.265 7.51 11.265 1.471 8.148 1.471ZM12.735 16.49 8.148 16.49C5.672 16.49 3.658 14.476 3.658 12 3.658 9.524 5.672 7.51 8.148 7.51L12.736 7.51 12.736 16.49ZM8.148 8.981C6.483 8.981 5.129 10.336 5.129 12 5.129 13.664 6.484 15.019 8.148 15.019L11.265 15.019 11.265 8.981 8.148 8.981ZM8.172 24C5.683 24 3.657 21.986 3.657 19.51 3.657 17.034 5.671 15.02 8.147 15.02L12.735 15.02 12.735 19.461C12.735 21.964 10.688 24 8.172 24ZM8.148 16.49C6.48157 16.4922 5.1312 17.8426 5.129 19.509 5.129 21.174 6.494 22.528 8.173 22.528 9.878 22.528 11.266 21.152 11.266 19.46L11.266 16.49 8.148 16.49ZM15.852 16.49 15.754 16.49C13.278 16.49 11.264 14.476 11.264 12 11.264 9.524 13.278 7.51 15.754 7.51L15.852 7.51C18.328 7.51 20.342 9.524 20.342 12 20.342 14.476 18.328 16.49 15.852 16.49ZM15.755 8.981C14.09 8.981 12.736 10.336 12.736 12 12.736 13.664 14.091 15.019 15.755 15.019L15.853 15.019C17.518 15.019 18.872 13.664 18.872 12 18.872 10.336 17.517 8.981 15.853 8.981L15.755 8.981Z" fill="#FFFFFF"/></svg>