<svg viewBox="0 0 24 24" xmlns="http://www.w3.org/2000/svg" xmlns:xlink="http://www.w3.org/1999/xlink" overflow="hidden">
<path d="M4.459 4.208C5.205 4.814 5.485 4.768 6.887 4.674L20.102 3.881C20.382 3.881 20.149 3.601 20.056 3.555L17.86 1.968C17.44 1.642 16.879 1.268 15.805 1.361L3.01 2.295C2.544 2.341 2.45 2.575 2.636 2.761ZM5.252 7.288 5.252 21.192C5.252 21.939 5.625 22.219 6.466 22.172L20.989 21.332C21.83 21.286 21.924 20.772 21.924 20.165L21.924 6.354C21.924 5.748 21.691 5.421 21.176 5.467L5.999 6.354C5.439 6.401 5.252 6.681 5.252 7.287ZM19.589 8.033C19.682 8.453 19.589 8.873 19.169 8.921L18.469 9.061 18.469 19.325C17.861 19.652 17.301 19.839 16.834 19.839 16.086 19.839 15.899 19.605 15.339 18.906L10.762 11.72 10.762 18.672 12.21 19C12.21 19 12.21 19.84 11.042 19.84L7.82 20.026C7.727 19.84 7.82 19.373 8.147 19.28L8.987 19.047 8.987 9.854 7.822 9.76C7.728 9.34 7.962 8.734 8.615 8.687L12.071 8.454 16.835 15.733 16.835 9.293 15.62 9.154C15.527 8.64 15.9 8.267 16.367 8.221ZM1.936 1.035 15.246 0.055C16.88-0.085 17.301 0.008 18.328 0.755L22.577 3.741C23.277 4.254 23.511 4.394 23.511 4.954L23.511 21.332C23.511 22.358 23.138 22.966 21.831 23.058L6.373 23.992C5.393 24.039 4.925 23.899 4.411 23.245L1.282 19.185C0.722 18.438 0.489 17.879 0.489 17.225L0.489 2.667C0.489 1.828 0.863 1.127 1.936 1.035Z" fill="url(#paint1_linear)"/>

<defs>
<linearGradient id="paint0_linear" x1="2.12767" y1="1" x2="30.7018" y2="17.5237" gradientUnits="userSpaceOnUse">
<stop offset="0.259336" stop-color="#FFDB6E"/>
<stop offset="1" stop-color="#FFBC5E"/>
</linearGradient>
<linearGradient id="paint1_linear" x1="1.59976" y1="8.08974e-07" x2="31.8368" y2="17.6727" gradientUnits="userSpaceOnUse">
<stop offset="0.259336" stop-color="#FFDB6E"/>
<stop offset="1" stop-color="#FFBC5E"/>
</linearGradient>
</defs>

</svg>